<?xml version="1.0" encoding="utf-8"?>
<!-- Generator: Adobe Illustrator 19.2.0, SVG Export Plug-In . SVG Version: 6.00 Build 0)  -->
<svg version="1.1" id="Layer_1" xmlns="http://www.w3.org/2000/svg" xmlns:xlink="http://www.w3.org/1999/xlink" x="0px" y="0px"
	 viewBox="0 0 1000 1000" style="enable-background:new 0 0 1000 1000;" xml:space="preserve">
<style type="text/css">
	.st0{fill:#47D3EA;}
	.st1{fill:#3BB7C4;}
	.st2{fill:#FFD983;}
	.st3{fill:none;stroke:#993990;stroke-width:5.9212;stroke-linecap:round;stroke-linejoin:round;stroke-miterlimit:10;}
	.st4{fill:#FFA9F3;}
	.st5{fill:#F9F046;}
	.st6{fill:none;stroke:#C46CC4;stroke-width:5.9212;stroke-linecap:round;stroke-linejoin:round;stroke-miterlimit:10;}
	.st7{fill:#FFFFFF;}
	.st8{fill:none;stroke:#993990;stroke-width:3;stroke-linecap:round;stroke-linejoin:round;stroke-miterlimit:10;}
	.st9{fill:#993990;}
	.st10{fill:#564736;}
	.st11{fill:#FF80F0;}
	.st12{fill:#50C1FF;}
	.st13{fill:#55FF50;}
	.st14{fill:#FFFF43;}
	.st15{fill:#606060;}
	.st16{fill:none;stroke:#9E8D28;stroke-width:5;stroke-linecap:round;stroke-linejoin:round;stroke-miterlimit:10;}
	.st17{fill:#124949;}
	.st18{font-family:'Noteworthy-Light';}
	.st19{font-size:50px;}
	.st20{fill:#6CDCFF;}
	.st21{fill:none;stroke:#124949;stroke-width:3;stroke-linecap:round;stroke-linejoin:round;stroke-miterlimit:10;}
	.st22{fill:#5E5941;}
	.st23{font-size:16.532px;}
</style>
<rect class="st0" width="1000" height="1000"/>
<ellipse class="st1" cx="217.5" cy="846" rx="189.2" ry="51.6"/>
<ellipse class="st1" cx="806.5" cy="803.2" rx="189.2" ry="51.6"/>
<path class="st2" d="M779.8,716.4v76.3c0,0-46.1,25.4,3.1,13.8c0,0,7.7,3.3,7.7-17.7s0-72.4,0-72.4H779.8z"/>
<path class="st2" d="M832.7,729.4v76.3c0,0-46.1,25.4,3.1,13.8c0,0,7.7,3.3,7.7-17.7s0-72.4,0-72.4H832.7z"/>
<line class="st3" x1="60.6" y1="692.1" x2="45.4" y2="781"/>
<line class="st3" x1="335.8" y1="674.2" x2="425.9" y2="671.1"/>
<polyline class="st3" points="137.1,723.9 137.1,854.9 170.6,854.9 "/>
<polyline class="st3" points="244.8,707.5 244.8,838.5 278.3,838.5 "/>
<path class="st4" d="M241.1,732.7h-43.4h-90.2c-41.2-0.8-58.9-25.2-61.7-45.9C39.5,639.6,111,556.2,158.1,507
	c21.5-22.5,56.5-22.5,78,0c47,49.1,118.3,132.3,112.3,179.5c-2.6,20.8-20.3,45.4-61.7,46.2h-90.2h-43.4"/>
<path class="st5" d="M257.8,530.3c-7.5-8.4-14.9-16.2-21.7-23.3c-21.5-22.5-56.5-22.5-78,0c-6.8,7.1-14.2,15-21.7,23.3
	C136.4,530.3,199,558.3,257.8,530.3z"/>
<path class="st6" d="M117.3,544.1c0,0,36.7,7.3,53.2-19.2"/>
<path class="st6" d="M256.5,531.3c0,0-36.7,7.3-53.2-19.2"/>
<ellipse class="st7" cx="197.1" cy="693.8" rx="35.9" ry="25.1"/>
<line class="st8" x1="135.2" y1="558" x2="131.4" y2="541.3"/>
<line class="st8" x1="142.3" y1="554.2" x2="139" y2="537.4"/>
<line class="st8" x1="149.9" y1="554.3" x2="147.4" y2="537.4"/>
<circle class="st7" cx="148.6" cy="593.1" r="41"/>
<circle class="st9" cx="163.7" cy="587.3" r="21.3"/>
<line class="st8" x1="222.9" y1="543.2" x2="219.1" y2="526.6"/>
<line class="st8" x1="230" y1="539.5" x2="226.7" y2="522.7"/>
<line class="st8" x1="237.5" y1="539.5" x2="235" y2="522.6"/>
<circle class="st7" cx="242.8" cy="578.4" r="41"/>
<circle class="st9" cx="254.9" cy="571.7" r="21.3"/>
<path class="st2" d="M810.2,410.6c-89.8,0-162.6,72.8-162.6,162.6s72.8,162.6,162.6,162.6S972.8,663,972.8,573.2
	S900,410.6,810.2,410.6z M810.2,654.2c-44.7,0-81-36.3-81-81c0-44.7,36.3-81,81-81s81,36.3,81,81
	C891.2,617.9,854.9,654.2,810.2,654.2z"/>
<g>
	<path class="st10" d="M963,573.2c0,15.8-14.2,29.2-18.9,43.5c-4.8,14.8-1.4,34-10.3,46.3c-9.1,12.5-28.4,15-40.9,24.1
		c-12.3,9-20.7,26.6-35.5,31.4c-14.3,4.6-31.4-4.6-47.2-4.6c-15.8,0-32.9,9.2-47.2,4.6c-14.8-4.8-23.2-22.5-35.5-31.4
		c-12.5-9.1-31.8-11.7-40.9-24.1c-9-12.3-5.5-31.5-10.3-46.3c-4.6-14.3-18.9-27.7-18.9-43.5c0-15.8,14.2-29.2,18.9-43.5
		c4.8-14.8,1.4-34,10.3-46.3c9.1-12.5,28.4-15,40.9-24.1c12.3-9,20.7-26.6,35.5-31.4c14.3-4.6,31.4,4.6,47.2,4.6
		c15.8,0,32.9-9.2,47.2-4.6c14.8,4.8,23.2,22.5,35.5,31.4c12.5,9.1,31.8,11.7,40.9,24.1c9,12.3,5.5,31.5,10.3,46.3
		C948.8,544,963,557.4,963,573.2z"/>
</g>
<circle class="st0" cx="810.2" cy="573.2" r="81"/>
<path class="st11" d="M684.1,590.2L684.1,590.2c-2.1-1.3-2.7-4-1.4-6.1l11.5-18.2c1.3-2.1,4-2.7,6.1-1.4l0,0c2.1,1.3,2.7,4,1.4,6.1
	l-11.5,18.2C688.9,590.9,686.1,591.5,684.1,590.2z"/>
<path class="st11" d="M704.4,626.2L704.4,626.2c-2.1-1.3-2.7-4-1.4-6.1l11.5-18.2c1.3-2.1,4-2.7,6.1-1.4l0,0c2.1,1.3,2.7,4,1.4,6.1
	l-11.5,18.2C709.2,626.9,706.5,627.5,704.4,626.2z"/>
<path class="st12" d="M687.6,533.5L687.6,533.5c0.6-2.4,3-3.8,5.4-3.2l20.9,5.2c2.4,0.6,3.8,3,3.2,5.4l0,0c-0.6,2.4-3,3.8-5.4,3.2
	l-20.9-5.2C688.5,538.3,687,535.9,687.6,533.5z"/>
<path class="st13" d="M704.4,593.6L704.4,593.6c-2.1-1.3-2.7-4-1.4-6.1l11.5-18.2c1.3-2.1,4-2.7,6.1-1.4l0,0c2.1,1.3,2.7,4,1.4,6.1
	l-11.5,18.2C709.2,594.3,706.5,594.9,704.4,593.6z"/>
<path class="st14" d="M769.8,679.4L769.8,679.4c0,2.4-2,4.4-4.4,4.4h-21.6c-2.4,0-4.4-2-4.4-4.4v0c0-2.4,2-4.4,4.4-4.4h21.6
	C767.8,674.9,769.8,676.9,769.8,679.4z"/>
<path class="st12" d="M789.9,698.5L789.9,698.5c-2.4-0.3-4.1-2.6-3.8-5l3-21.4c0.3-2.4,2.6-4.1,5-3.8l0,0c2.4,0.3,4.1,2.6,3.8,5
	l-3,21.4C794.6,697.2,792.3,698.9,789.9,698.5z"/>
<path class="st12" d="M720.3,641.1L720.3,641.1c0.6-2.4,3-3.8,5.4-3.2l20.9,5.2c2.4,0.6,3.8,3,3.2,5.4l0,0c-0.6,2.4-3,3.8-5.4,3.2
	l-20.9-5.2C721.2,645.9,719.7,643.4,720.3,641.1z"/>
<path class="st13" d="M919.3,602.2L919.3,602.2c-0.3-2.4,1.4-4.7,3.8-5l21.4-2.9c2.4-0.3,4.7,1.4,5,3.8l0,0c0.3,2.4-1.4,4.7-3.8,5
	l-21.4,2.9C921.9,606.3,919.6,604.6,919.3,602.2z"/>
<path class="st14" d="M891.8,647.7L891.8,647.7c-0.5-2.4,1.1-4.7,3.5-5.2l21.2-4.1c2.4-0.5,4.7,1.1,5.2,3.5v0
	c0.5,2.4-1.1,4.7-3.5,5.2l-21.2,4.1C894.6,651.6,892.3,650.1,891.8,647.7z"/>
<path class="st11" d="M841,685L841,685c-1-2.2,0-4.9,2.2-5.8l19.7-8.8c2.2-1,4.9,0,5.8,2.2h0c1,2.2,0,4.9-2.2,5.8l-19.7,8.8
	C844.6,688.2,842,687.2,841,685z"/>
<path class="st13" d="M900.7,600.5L900.7,600.5c-2.1-1.3-2.7-4-1.4-6.1l11.5-18.2c1.3-2.1,4-2.7,6.1-1.4l0,0c2.1,1.3,2.7,4,1.4,6.1
	l-11.5,18.2C905.5,601.1,902.7,601.8,900.7,600.5z"/>
<path class="st13" d="M725.3,514.7L725.3,514.7c-2.4,0.4-4.7-1.2-5.1-3.6l-3.6-21.3c-0.4-2.4,1.2-4.7,3.6-5.1l0,0
	c2.4-0.4,4.7,1.2,5.1,3.6l3.6,21.3C729.3,512,727.7,514.3,725.3,514.7z"/>
<path class="st12" d="M880.3,501.6L880.3,501.6c-2.1-1.3-2.7-4-1.4-6.1l11.5-18.2c1.3-2.1,4-2.7,6.1-1.4h0c2.1,1.3,2.7,4,1.4,6.1
	l-11.5,18.2C885.1,502.3,882.3,502.9,880.3,501.6z"/>
<path class="st11" d="M899,541.6L899,541.6c-1-2.2,0-4.9,2.2-5.9l19.6-8.9c2.2-1,4.9,0,5.9,2.2l0,0c1,2.2,0,4.9-2.2,5.9l-19.6,8.9
	C902.6,544.8,900,543.8,899,541.6z"/>
<circle class="st7" cx="782.2" cy="447.8" r="12.9"/>
<circle class="st15" cx="778.5" cy="451.7" r="6.3"/>
<circle class="st7" cx="833.7" cy="447.8" r="12.9"/>
<circle class="st15" cx="830.3" cy="450.7" r="6.3"/>
<path class="st16" d="M751.3,441c0,0,23.6-0.8,36.1-21.8"/>
<path class="st16" d="M864.6,439c0,0-23.6-0.8-36.1-21.8"/>
<path class="st2" d="M655.1,601.4l-7.5,72.8c0,0-21.4,37.1,11.6,0.7c0.4-0.4,0.6-1,0.6-1.6l3.5-71.9H655.1z"/>
<path class="st2" d="M954.8,626.6l7.5,72.8c0,0,21.4,37.1-11.6,0.7c-0.4-0.4-0.6-1-0.6-1.6l-3.5-71.9H954.8z"/>
<text transform="matrix(1 0 0 1 151.2012 125.9822)" class="st17 st18 st19">Are you ok?</text>
<ellipse class="st20" cx="840.6" cy="465.9" rx="4.4" ry="7.6"/>
<line class="st21" x1="314.8" y1="148.9" x2="291.8" y2="417.2"/>
<g>
	<text transform="matrix(1 0 0 1 505.5957 201.5226)"><tspan x="0" y="0" class="st17 st18 st19">Sometimes I feel empty</tspan><tspan x="0" y="60" class="st17 st18 st19">inside :(</tspan></text>
</g>
<line class="st21" x1="713.4" y1="246.1" x2="765.4" y2="393.8"/>
<g>
	<path class="st22" d="M917.6,985.1h-3.9h-8.1c-3.7-0.1-5.3-2.3-5.5-4.1c-0.6-4.2,5.8-11.7,10-16c1.9-2,5-2,7,0
		c4.2,4.4,10.6,11.8,10,16c-0.2,1.9-1.8,4.1-5.5,4.1h-8.1h-3.9"/>
	<text transform="matrix(1 0 0 1 930.203 985.1387)" class="st22 st18 st23">Kiwisnap</text>
</g>
<path class="st7" d="M779.9,490.7c-2.2,2.2-5.7-0.5-4.2-3.2c4.5-8,13.4-16.9,30.7-18.1c19.3-1.4,26.1,10,28.5,19.5
	c0.7,2.8-3,4.5-4.7,2.2C821.7,479.9,804.5,465.9,779.9,490.7z"/>
</svg>
