<?xml version="1.0" encoding="utf-8"?>
<!-- Generator: Adobe Illustrator 19.2.0, SVG Export Plug-In . SVG Version: 6.00 Build 0)  -->
<svg version="1.1" id="Layer_1" xmlns="http://www.w3.org/2000/svg" xmlns:xlink="http://www.w3.org/1999/xlink" x="0px" y="0px"
	 viewBox="0 0 200 100" style="enable-background:new 0 0 200 100;" xml:space="preserve">
<style type="text/css">
	.st0{fill:none;stroke:#5C83BC;stroke-width:1.0701;stroke-linecap:round;stroke-linejoin:round;stroke-miterlimit:10;}
	.st1{fill:#75A5F9;}
	.st2{fill:#FFFFFF;}
	.st3{fill:#5C83BC;}
	.st4{fill:none;stroke:#FFFFFF;stroke-width:1.0701;stroke-linecap:round;stroke-linejoin:round;stroke-miterlimit:10;}
	.st5{fill:none;stroke:#993990;stroke-width:1.0701;stroke-linecap:round;stroke-linejoin:round;stroke-miterlimit:10;}
	.st6{fill:#FFA9F3;}
	.st7{fill:#F9F046;}
	.st8{fill:none;stroke:#993990;stroke-width:0.5422;stroke-linecap:round;stroke-linejoin:round;stroke-miterlimit:10;}
	.st9{fill:#993990;}
	.st10{font-family:'Noteworthy-Light';}
	.st11{font-size:12px;}
</style>
<line class="st0" x1="21.3" y1="63.5" x2="18" y2="82.9"/>
<line class="st0" x1="80.8" y1="63.5" x2="84.1" y2="82.9"/>
<polyline class="st0" points="39.8,70.5 39.8,99 32.5,99 "/>
<polyline class="st0" points="61.4,70.5 61.4,99 68.7,99 "/>
<path class="st1" d="M60.6,72.4h-9.5H31.5c-9-0.2-12.8-5.5-13.4-10c-1.4-10.3,14.2-28.5,24.5-39.2c4.7-4.9,12.3-4.9,17,0
	C69.8,33.9,85.3,52,84,62.3c-0.6,4.5-4.4,9.9-13.4,10.1H50.9h-9.5"/>
<circle class="st2" cx="41.5" cy="40.8" r="8.9"/>
<circle class="st3" cx="43.2" cy="41.9" r="4.7"/>
<circle class="st2" cx="60.5" cy="40.8" r="8.9"/>
<circle class="st3" cx="58.8" cy="41.9" r="4.7"/>
<line class="st4" x1="46.2" y1="66.6" x2="55.8" y2="66.6"/>
<line class="st5" x1="118.6" y1="63.5" x2="115.3" y2="82.9"/>
<line class="st5" x1="178.1" y1="63.5" x2="181.4" y2="82.9"/>
<polyline class="st5" points="137.1,70.5 137.1,99 129.8,99 "/>
<polyline class="st5" points="158.7,70.5 158.7,99 166,99 "/>
<path class="st6" d="M157.9,72.4h-9.5h-19.7c-9-0.2-12.8-5.5-13.4-10c-1.4-10.3,14.2-28.5,24.5-39.2c4.7-4.9,12.3-4.9,17,0
	C167,33.9,182.6,52,181.3,62.3c-0.6,4.5-4.4,9.9-13.4,10.1h-19.7h-9.5"/>
<path class="st7" d="M161.5,28.3c-1.6-1.8-3.2-3.5-4.7-5.1c-4.7-4.9-12.3-4.9-17,0c-1.5,1.6-3.1,3.3-4.7,5.1
	C135.1,28.3,148.7,34.4,161.5,28.3z"/>
<line class="st8" x1="135.8" y1="33.2" x2="135" y2="29.5"/>
<line class="st8" x1="137.4" y1="32.4" x2="136.7" y2="28.7"/>
<line class="st8" x1="139" y1="32.4" x2="138.5" y2="28.7"/>
<circle class="st2" cx="138.7" cy="40.8" r="8.9"/>
<circle class="st9" cx="140.5" cy="41.9" r="4.7"/>
<line class="st8" x1="160.7" y1="33.2" x2="161.5" y2="29.5"/>
<line class="st8" x1="159.1" y1="32.4" x2="159.8" y2="28.7"/>
<line class="st8" x1="157.5" y1="32.4" x2="158" y2="28.7"/>
<circle class="st2" cx="157.7" cy="40.8" r="8.9"/>
<circle class="st9" cx="156" cy="41.9" r="4.7"/>
<path class="st5" d="M137.4,59c0,0,11,13.2,21.9,0"/>
<text transform="matrix(1 0 0 1 41.4602 11.8084)" class="st3 st10 st11">Kiwi</text>
<text transform="matrix(1 0 0 1 133.4709 11.8084)" class="st9 st10 st11">Mocha</text>
</svg>
