<svg xmlns="http://www.w3.org/2000/svg" viewBox="912 1854 32.066 32.066"><defs><style>.a{opacity:0.499;}.b{fill:#3a3737;}</style></defs><g class="a" transform="translate(912 1854)"><path class="b" d="M16.033,0A16.033,16.033,0,1,0,32.066,16.033,16.028,16.028,0,0,0,16.033,0Zm9.835,8.32a12.364,12.364,0,0,1,2.661,7.141,25.62,25.62,0,0,0-5.12-.573h0a20.921,20.921,0,0,0-3.638.3c-.269-.674-.539-1.314-.842-1.954A20.008,20.008,0,0,0,25.868,8.32ZM16.033,3.537A12.472,12.472,0,0,1,23.847,6.3a16.54,16.54,0,0,1-6.13,4.379A45.331,45.331,0,0,0,13.406,3.84,11.014,11.014,0,0,1,16.033,3.537Zm-5.524,1.28a36.816,36.816,0,0,1,4.446,6.8A36.59,36.59,0,0,1,5.086,13H3.873A12.581,12.581,0,0,1,10.509,4.817ZM3.537,16.033v-.168c.371,0,.808.034,1.381.034h0a39.427,39.427,0,0,0,11.351-1.617c.236.539.472,1.078.707,1.65a19.385,19.385,0,0,0-7.04,4.143A21.874,21.874,0,0,0,6.5,24.083,12.4,12.4,0,0,1,3.537,16.033Zm12.5,12.5A12.413,12.413,0,0,1,8.589,26.07a17.361,17.361,0,0,1,2.9-3.57,17.079,17.079,0,0,1,6.5-3.941,60.689,60.689,0,0,1,2.459,9.162A11.943,11.943,0,0,1,16.033,28.529Zm7.073-2.223a66.957,66.957,0,0,0-2.324-8.421,20.419,20.419,0,0,1,2.56-.168h.034a24.535,24.535,0,0,1,4.918.573A12.4,12.4,0,0,1,23.106,26.306Z"/></g></svg>