<svg xmlns="http://www.w3.org/2000/svg" viewBox="1041 1855 29.843 29.775"><defs><style>.a{opacity:0.499;}.b{fill:#3a3737;}</style></defs><g class="a" transform="translate(1041 1855)"><path class="b" d="M50.6,48.344H44.4V38.677c0-2.29-.034-5.288-3.2-5.288-3.2,0-3.705,2.526-3.705,5.12v9.835H31.3V28.472h5.928V31.2h.1A6.486,6.486,0,0,1,43.19,28c6.265,0,7.41,4.109,7.41,9.465V48.344Z" transform="translate(-20.757 -18.569)"/><path class="b" d="M3.57,7.174a3.587,3.587,0,1,1,3.57-3.6,3.558,3.558,0,0,1-3.57,3.6Z"/><path class="b" d="M7.664,49.273H1.5V29.4H7.664Z" transform="translate(-0.995 -19.497)"/></g></svg>