<svg xmlns="http://www.w3.org/2000/svg" viewBox="976 1856 32.369 27.417"><defs><style>.a{opacity:0.499;}.b{fill:#3a3737;}</style></defs><g class="a" transform="translate(976 1856)"><path class="b" d="M62.641,5.019h0L52.84.1a.479.479,0,0,0-.2-.067A.657.657,0,0,0,52.368,0a1.165,1.165,0,0,0-.943.505L45.8,9.667l7.04,11.452,9.8-15.932C62.709,5.12,62.709,5.052,62.641,5.019Z" transform="translate(-30.373)"/><path class="b" d="M36.6,22.5V32.908l9.263,4.614Z" transform="translate(-24.272 -14.921)"/><path class="b" d="M68.2,39.058l7.612,3.806c.977.505,1.785.135,1.785-.775V23.8Z" transform="translate(-45.229 -15.784)"/><path class="b" d="M10.745,5.284,1.179.535A.842.842,0,0,0,.707.4C.3.4,0,.737,0,1.276v20.58A1.765,1.765,0,0,0,.909,23.3L9.3,27.514a1.372,1.372,0,0,0,.606.168c.539,0,.876-.4.876-1.078V5.385A.124.124,0,0,0,10.745,5.284Z" transform="translate(0 -0.265)"/></g></svg>