<?xml version="1.0" encoding="utf-8"?>
<!-- Generator: Adobe Illustrator 22.0.1, SVG Export Plug-In . SVG Version: 6.00 Build 0)  -->
<svg version="1.1" id="Layer_1" xmlns="http://www.w3.org/2000/svg" xmlns:xlink="http://www.w3.org/1999/xlink" x="0px" y="0px"
	 viewBox="0 0 32.4 27.4" style="enable-background:new 0 0 32.4 27.4;" xml:space="preserve">
<style type="text/css">
	.st0{opacity:0.5;fill:#3A3737;}
</style>
<path id="Shape" class="st0" d="M3.8,6.1c0-0.4-0.1-0.8-0.4-1.1l-3-3.6V0.9h9.4L17,16.8l6.4-15.9h8.9v0.5l-2.6,2.5
	c-0.2,0.2-0.3,0.4-0.3,0.7v18.2c0,0.3,0.1,0.6,0.3,0.7l2.5,2.5v0.5H19.6V26l2.6-2.5c0.3-0.3,0.3-0.3,0.3-0.7V8l-7.3,18.5h-1L5.8,8
	v12.4c-0.1,0.5,0.1,1,0.5,1.4l3.4,4.1v0.5H0v-0.5l3.4-4.1c0.4-0.4,0.5-0.9,0.4-1.4V6.1z"/>
</svg>
