<svg xmlns="http://www.w3.org/2000/svg" viewBox="849 1858 30.179 24.521"><defs><style>.a{fill:#3a3737;opacity:0.499;}</style></defs><path class="a" d="M30.179,2.9a11.44,11.44,0,0,1-3.57.977A6.3,6.3,0,0,0,29.337.438,11.251,11.251,0,0,1,25.43,1.954,6.2,6.2,0,0,0,14.719,6.2a6.761,6.761,0,0,0,.168,1.415,17.728,17.728,0,0,1-12.8-6.467A6.167,6.167,0,0,0,4.008,9.4a6.094,6.094,0,0,1-2.8-.775V8.69a6.181,6.181,0,0,0,4.951,6.063,6.444,6.444,0,0,1-1.617.2,6.965,6.965,0,0,1-1.179-.1,6.213,6.213,0,0,0,5.793,4.311,12.481,12.481,0,0,1-7.68,2.661A10.956,10.956,0,0,1,0,21.725a17.559,17.559,0,0,0,9.5,2.8c11.385,0,17.616-9.431,17.616-17.616a6.49,6.49,0,0,0-.034-.808A12.169,12.169,0,0,0,30.179,2.9Z" transform="translate(849 1858)"/></svg>