<?xml version="1.0" encoding="utf-8"?>
<!-- Generator: Adobe Illustrator 22.1.0, SVG Export Plug-In . SVG Version: 6.00 Build 0)  -->
<svg version="1.1" id="Layer_1" xmlns="http://www.w3.org/2000/svg" xmlns:xlink="http://www.w3.org/1999/xlink" x="0px" y="0px"
	 viewBox="0 0 32.1 32.1" style="enable-background:new 0 0 32.1 32.1;" xml:space="preserve">
<style type="text/css">
	.st0{opacity:0.5;}
	.st1{fill:#3A3737;}
</style>
<g>
	<g id="g1382" transform="matrix(1.25,0,0,-1.25,438.53875,696.92845)" class="st0">
		<path id="path1384" class="st1" d="M-347.3,545.2c-0.4-0.7-0.6-2.8-0.4-4.2c0.1-0.5,0.1-0.8,0.3-1.1c0.2-0.3,0.4-0.5,0.8-0.5
			c0.2,0,0.3,0,4.2,1.3c0,0,1.7,0.5,1.7,0.5c0.4,0.1,0.7,0.5,0.7,1c0,0.5-0.2,1-0.7,1.1c0,0-1.2,0.5-1.2,0.5
			c-4.1,1.7-4.3,1.8-4.5,1.8C-346.8,545.7-347.1,545.5-347.3,545.2"/>
	</g>
	<g id="g1386" transform="matrix(1.25,0,0,-1.25,448.53875,710.66595)" class="st0">
		<path id="path1388" class="st1" d="M-346,543.5c0.1,0.2,0.1,0.3,0.1,4.4c0,0,0,1.8,0,1.8c0,0.4-0.3,0.8-0.7,1
			c-0.5,0.2-1,0.1-1.3-0.3c0,0-0.8-1-0.8-1c-2.9-3.4-3-3.6-3.1-3.8c0-0.1-0.1-0.2,0-0.4c0-0.2,0.1-0.4,0.2-0.5
			c0.7-0.8,3.9-2,4.9-1.8C-346.4,543-346.1,543.2-346,543.5"/>
	</g>
	<g id="g1390" transform="matrix(1.25,0,0,-1.25,455.60375,709.1447)" class="st0">
		<path id="path1392" class="st1" d="M-345.1,543.7c1,0.4,3.1,3.1,3.2,4.1c0.1,0.4-0.1,0.7-0.3,0.9c-0.2,0.1-0.3,0.2-4.1,1.4
			c0,0-1.7,0.6-1.7,0.6c-0.4,0.2-0.9,0-1.2-0.4c-0.3-0.4-0.4-0.9-0.1-1.3l0.7-1.1c2.3-3.7,2.5-4,2.6-4.1
			C-345.8,543.6-345.5,543.5-345.1,543.7"/>
	</g>
	<g id="g1394" transform="matrix(1.25,0,0,-1.25,453.455,698.8272)" class="st0">
		<path id="path1396" class="st1" d="M-345.4,545c4.4,1.1,4.5,1.1,4.7,1.2c0.3,0.2,0.4,0.5,0.4,0.8c0,0,0,0,0,0
			c-0.1,1.1-2,3.9-2.9,4.3c-0.3,0.2-0.7,0.1-0.9,0c-0.2-0.1-0.3-0.3-2.6-3.5c0,0-1.1-1.4-1.1-1.5c-0.3-0.3-0.3-0.8,0-1.2
			c0.3-0.4,0.8-0.6,1.2-0.5c0,0,0,0,0,0C-346.5,544.7-346.1,544.8-345.4,545"/>
	</g>
	<g id="g1398" transform="matrix(1.25,0,0,-1.25,448.7125,694.92595)" class="st0">
		<path id="path1400" class="st1" d="M-346,545.4c-0.1,1.7-0.6,9.5-0.7,9.8c-0.1,0.3-0.3,0.6-0.7,0.6c-1.1,0.3-5.4-0.9-6.2-1.7
			c-0.3-0.3-0.3-0.6-0.3-0.9c0.1-0.3,5.4-8.6,5.4-8.6c0.8-1.3,1.4-1.1,1.6-1C-346.6,543.8-345.9,544-346,545.4"/>
	</g>
</g>
</svg>
